<?xml version="1.0" encoding="UTF-8"?>
<svg version="1.1" viewBox="0 0 218 90" xmlns="http://www.w3.org/2000/svg">
<title>w_s_top_software_dev_black_text</title>
<desc>Created with Sketch.</desc>
<g fill="none" fill-rule="evenodd">
<g transform="translate(-2684 -616)">
<g transform="translate(2077 123)">
<g transform="translate(607 493)">
<rect width="90" height="90" fill="#FFD409"/>
<path d="m17 31h5.6513c0.5837 0 1.0712 0.13266 1.4626 0.39798 0.39135 0.26532 0.64671 0.61686 0.76611 1.0546l3.9798 15.123c0.11939 0.49084 0.23879 1.0148 0.35818 1.572 0.11939 0.55717 0.23879 1.1409 0.35818 1.7511 0.23879-1.247 0.53063-2.3547 0.87555-3.3231l4.6961-15.123c0.11939-0.37145 0.37476-0.70641 0.76611-1.0049 0.39135-0.29848 0.8656-0.44772 1.4228-0.44772h1.9899c0.5837 0 1.0546 0.13597 1.4128 0.40793 0.35818 0.27195 0.63013 0.62018 0.81585 1.0447l4.6563 15.123c0.34492 0.92862 0.63676 1.9832 0.87555 3.1639 0.10613-0.5837 0.21557-1.1409 0.32833-1.6715 0.11276-0.53064 0.22884-1.0281 0.34823-1.4924l3.9798-15.123c0.10613-0.38471 0.35818-0.72299 0.75616-1.0148 0.39798-0.29185 0.87555-0.43777 1.4327-0.43777h5.2931l-8.9545 28.993h-6.0891l-5.4523-17.969c-0.19899-0.57044-0.39134-1.2271-0.57707-1.97-0.18572 0.74289-0.37808 1.3996-0.57707 1.97l-5.5319 17.969h-6.0891l-8.9545-28.993zm51.662 0.025955h4.8833l-8.3304 26.863c-0.38937 1.2556-1.5508 2.1114-2.8654 2.1114h-4.7397l8.1824-26.849c0.38481-1.2626 1.5497-2.1254 2.8697-2.1254z" fill="#222"/>
<path d="m107.77 42v-9.712h-2.192v-2.128h6.576v2.128h-2.192v9.712h-2.192zm10.912-12.048c1.76 0 3.24 0.60266 4.44 1.808s1.8 2.6667 1.8 4.384-0.60266 3.1707-1.808 4.36-2.6827 1.784-4.432 1.784c-1.76 0-3.2427-0.59466-4.448-1.784s-1.8027-2.6427-1.792-4.36c0-1.7173 0.59733-3.1787 1.792-4.384s2.6773-1.808 4.448-1.808zm-0.016 10.208c1.152 0 2.1173-0.39733 2.896-1.192s1.168-1.752 1.168-2.872c0-1.1093-0.38933-2.056-1.168-2.84s-1.7387-1.176-2.88-1.176c-1.152 0-2.1147 0.392-2.888 1.176s-1.16 1.7307-1.16 2.84c0 1.1307 0.38666 2.0907 1.16 2.88s1.7307 1.184 2.872 1.184zm8 1.84v-11.84h3.312c1.3547 0.010667 2.4 0.344 3.136 1s1.104 1.5547 1.104 2.696c0 1.0773-0.35733 1.9573-1.072 2.64s-1.7707 1.024-3.168 1.024h-1.12v4.48h-2.192zm2.192-9.712v3.104h1.296c0.59734 0 1.056-0.128 1.376-0.384s0.48533-0.64533 0.496-1.168c0-0.512-0.16266-0.89867-0.488-1.16s-0.78666-0.392-1.384-0.392h-1.296zm10.016 6.384h2.288c0.010667 0.45867 0.168 0.82133 0.472 1.088s0.67466 0.4 1.112 0.4c0.46934 0 0.85333-0.13867 1.152-0.416s0.448-0.63466 0.448-1.072c0-0.42667-0.13866-0.79733-0.416-1.112s-0.71466-0.57333-1.312-0.776c-0.608-0.192-0.93867-0.29867-0.992-0.32s-0.10667-0.048-0.16-0.08c-0.736-0.29867-1.28-0.72-1.632-1.264s-0.528-1.1467-0.528-1.808c0-0.96 0.33866-1.76 1.016-2.4s1.512-0.96 2.504-0.96c0.94934 0 1.744 0.30933 2.384 0.928s0.98667 1.4293 1.04 2.432h-2.256c-0.010667-0.36267-0.128-0.65867-0.352-0.888s-0.51733-0.344-0.88-0.344c-0.37334 0.010667-0.68 0.12533-0.92 0.344s-0.35467 0.52-0.344 0.904c0 0.34134 0.10933 0.624 0.328 0.848s0.616 0.42133 1.192 0.592c0.34134 0.11733 0.58133 0.2 0.72 0.248s0.272 0.093333 0.4 0.136c0.72534 0.29867 1.3067 0.73066 1.744 1.296s0.656 1.264 0.656 2.096c0 1.0667-0.36266 1.9573-1.088 2.672s-1.6427 1.072-2.752 1.072c-1.0987 0-2.0107-0.34666-2.736-1.04s-1.088-1.552-1.088-2.576zm15.024-8.72c1.76 0 3.24 0.60266 4.44 1.808s1.8 2.6667 1.8 4.384-0.60266 3.1707-1.808 4.36-2.6827 1.784-4.432 1.784c-1.76 0-3.2427-0.59466-4.448-1.784s-1.8027-2.6427-1.792-4.36c0-1.7173 0.59733-3.1787 1.792-4.384s2.6773-1.808 4.448-1.808zm-0.016 10.208c1.152 0 2.1173-0.39733 2.896-1.192s1.168-1.752 1.168-2.872c0-1.1093-0.38933-2.056-1.168-2.84s-1.7387-1.176-2.88-1.176c-1.152 0-2.1147 0.392-2.888 1.176s-1.16 1.7307-1.16 2.84c0 1.1307 0.38666 2.0907 1.16 2.88s1.7307 1.184 2.872 1.184zm8 1.84v-11.84h6.016v2.128h-3.824v2.736h3.648v2.128h-3.648v4.848h-2.192zm9.056 0v-9.712h-2.192v-2.128h6.576v2.128h-2.192v9.712h-2.192zm8.16 0-3.44-11.84h2.24l2.064 8.288 2.016-8.288h1.6l2.016 8.288 2.064-8.288h2.24l-3.44 11.84h-1.744l-1.936-7.824-1.936 7.824h-1.744zm9.728 0 4.928-11.84h1.76l4.928 11.84h-2.416l-1.216-3.056h-4.352l-1.216 3.056h-2.416zm4.464-5.184h2.688l-1.344-3.456-1.344 3.456zm8.544 5.184v-11.84h3.424c1.4293 0 2.528 0.336 3.296 1.008s1.152 1.5893 1.152 2.752c0 0.97067-0.296 1.8107-0.888 2.52s-1.3627 1.1067-2.312 1.192l3.328 4.368h-2.704l-3.072-4.368h-0.032v4.368h-2.192zm2.192-9.712v3.52h1.296c0.672 0 1.2053-0.14133 1.6-0.424s0.592-0.728 0.592-1.336c-0.010667-0.59734-0.21066-1.04-0.6-1.328s-0.92-0.432-1.592-0.432h-1.296zm7.28 9.712v-11.84h6.352v2.128h-4.16v2.736h3.984v2.128h-3.984v2.72h4.16v2.128h-6.352z" fill="#fff"/>
<path d="m105.17 61v-11.84h3.28c1.9733 0 3.5253 0.504 4.656 1.512s1.696 2.4987 1.696 4.472c0 1.7387-0.52266 3.1493-1.568 4.232-1.0453 1.0827-2.624 1.624-4.736 1.624h-3.328zm2.192-2.128h1.072c1.344 0.010667 2.3733-0.288 3.088-0.896s1.0773-1.552 1.088-2.832c0-1.3227-0.37066-2.296-1.112-2.92s-1.8-0.936-3.176-0.936h-0.96v7.584zm9.2 2.128v-11.84h6.352v2.128h-4.16v2.736h3.984v2.128h-3.984v2.72h4.16v2.128h-6.352zm12.112 0-4.576-11.84h2.304l3.184 9.008 3.184-9.008h2.304l-4.576 11.84h-1.824zm7.792 0v-11.84h6.352v2.128h-4.16v2.736h3.984v2.128h-3.984v2.72h4.16v2.128h-6.352zm8.512 0v-11.84h2.192v9.712h3.616v2.128h-5.808zm12.4-12.048c1.76 0 3.24 0.60266 4.44 1.808s1.8 2.6667 1.8 4.384-0.60266 3.1707-1.808 4.36-2.6827 1.784-4.432 1.784c-1.76 0-3.2427-0.59466-4.448-1.784s-1.8027-2.6427-1.792-4.36c0-1.7173 0.59733-3.1787 1.792-4.384s2.6773-1.808 4.448-1.808zm-0.016 10.208c1.152 0 2.1173-0.39733 2.896-1.192s1.168-1.752 1.168-2.872c0-1.1093-0.38933-2.056-1.168-2.84s-1.7387-1.176-2.88-1.176c-1.152 0-2.1147 0.392-2.888 1.176s-1.16 1.7307-1.16 2.84c0 1.1307 0.38666 2.0907 1.16 2.88s1.7307 1.184 2.872 1.184zm8 1.84v-11.84h3.312c1.3547 0.010667 2.4 0.344 3.136 1s1.104 1.5547 1.104 2.696c0 1.0773-0.35733 1.9573-1.072 2.64s-1.7707 1.024-3.168 1.024h-1.12v4.48h-2.192zm2.192-9.712v3.104h1.296c0.59734 0 1.056-0.128 1.376-0.384s0.48533-0.64533 0.496-1.168c0-0.512-0.16266-0.89867-0.488-1.16s-0.78666-0.392-1.384-0.392h-1.296zm6.96 9.712v-11.84h6.352v2.128h-4.16v2.736h3.984v2.128h-3.984v2.72h4.16v2.128h-6.352zm8.512 0v-11.84h3.424c1.4293 0 2.528 0.336 3.296 1.008s1.152 1.5893 1.152 2.752c0 0.97067-0.296 1.8107-0.888 2.52s-1.3627 1.1067-2.312 1.192l3.328 4.368h-2.704l-3.072-4.368h-0.032v4.368h-2.192zm2.192-9.712v3.52h1.296c0.672 0 1.2053-0.14133 1.6-0.424s0.592-0.728 0.592-1.336c-0.010667-0.59734-0.21066-1.04-0.6-1.328s-0.92-0.432-1.592-0.432h-1.296zm6.416 6.384h2.288c0.010667 0.45867 0.168 0.82133 0.472 1.088 0.304 0.26667 0.67466 0.4 1.112 0.4 0.46934 0 0.85333-0.13867 1.152-0.416s0.448-0.63466 0.448-1.072c0-0.42667-0.13866-0.79733-0.416-1.112s-0.71466-0.57333-1.312-0.776c-0.608-0.192-0.93867-0.29867-0.992-0.32s-0.10667-0.048-0.16-0.08c-0.736-0.29867-1.28-0.72-1.632-1.264s-0.528-1.1467-0.528-1.808c0-0.96 0.33866-1.76 1.016-2.4s1.512-0.96 2.504-0.96c0.94934 0 1.744 0.30933 2.384 0.928s0.98667 1.4293 1.04 2.432h-2.256c-0.010667-0.36267-0.128-0.65867-0.352-0.888s-0.51733-0.344-0.88-0.344c-0.37334 0.010667-0.68 0.12533-0.92 0.344s-0.35467 0.52-0.344 0.904c0 0.34134 0.10933 0.624 0.328 0.848s0.616 0.42133 1.192 0.592c0.34134 0.11733 0.58133 0.2 0.72 0.248s0.272 0.093333 0.4 0.136c0.72534 0.29867 1.3067 0.73066 1.744 1.296 0.43734 0.56534 0.656 1.264 0.656 2.096 0 1.0667-0.36266 1.9573-1.088 2.672s-1.6427 1.072-2.752 1.072c-1.0987 0-2.0107-0.34666-2.736-1.04s-1.088-1.552-1.088-2.576z" fill="#fff"/>
</g>
</g>
</g>
</g>
</svg>
